<svg width="24" height="22" viewBox="0 0 24 22" fill="none" xmlns="http://www.w3.org/2000/svg">
<path d="M6.32812 4.53125L5.10938 8H18.8438L17.625 4.53125C17.4375 3.92188 16.875 3.5 16.2188 3.5H7.73438C7.07812 3.5 6.51562 3.92188 6.32812 4.53125ZM1.82812 8.23438L3.46875 3.54688C4.125 1.71875 5.8125 0.5 7.73438 0.5H16.2188C18.1406 0.5 19.8281 1.71875 20.4844 3.54688L22.125 8.23438C23.2031 8.70312 24 9.78125 24 11V17.75V20C24 20.8438 23.2969 21.5 22.5 21.5H21C20.1562 21.5 19.5 20.8438 19.5 20V17.75H4.5V20C4.5 20.8438 3.79688 21.5 3 21.5H1.5C0.65625 21.5 0 20.8438 0 20V17.75V11C0 9.78125 0.75 8.70312 1.82812 8.23438ZM6 12.5C6 11.7031 5.29688 11 4.5 11C3.65625 11 3 11.7031 3 12.5C3 13.3438 3.65625 14 4.5 14C5.29688 14 6 13.3438 6 12.5ZM19.5 14C20.2969 14 21 13.3438 21 12.5C21 11.7031 20.2969 11 19.5 11C18.6562 11 18 11.7031 18 12.5C18 13.3438 18.6562 14 19.5 14Z" fill="#3461FF"/>
</svg>
